<mxfile host="app.diagrams.net" modified="2021-11-08T18:24:04.087Z" agent="5.0 (Windows NT 10.0; Win64; x64) AppleWebKit/537.36 (KHTML, like Gecko) Chrome/95.0.4638.69 Safari/537.36" etag="Q9qLL5cbdvAuBiSvR3Ug" version="15.7.0" type="github">
  <diagram id="9DvyNAnzWmax22KbAMWH" name="Page-1">
    <mxGraphModel dx="868" dy="482" grid="1" gridSize="10" guides="1" tooltips="1" connect="1" arrows="1" fold="1" page="1" pageScale="1" pageWidth="827" pageHeight="1169" math="0" shadow="0">
      <root>
        <mxCell id="0" />
        <mxCell id="1" parent="0" />
        <mxCell id="swak1WKB2JMvL7ucUvrD-1" value="Пользователь" style="shape=umlActor;verticalLabelPosition=bottom;verticalAlign=top;html=1;outlineConnect=0;" vertex="1" parent="1">
          <mxGeometry x="140" y="170" width="30" height="60" as="geometry" />
        </mxCell>
        <mxCell id="swak1WKB2JMvL7ucUvrD-2" value="Регистрация" style="ellipse;whiteSpace=wrap;html=1;" vertex="1" parent="1">
          <mxGeometry x="297.5" y="30" width="180" height="60" as="geometry" />
        </mxCell>
        <mxCell id="swak1WKB2JMvL7ucUvrD-3" value="Отправка фото конкретному пользователю" style="ellipse;whiteSpace=wrap;html=1;" vertex="1" parent="1">
          <mxGeometry x="301.25" y="110" width="185" height="70" as="geometry" />
        </mxCell>
        <mxCell id="swak1WKB2JMvL7ucUvrD-4" value="Удаление фото" style="ellipse;whiteSpace=wrap;html=1;" vertex="1" parent="1">
          <mxGeometry x="307.5" y="210" width="172.5" height="70" as="geometry" />
        </mxCell>
        <mxCell id="swak1WKB2JMvL7ucUvrD-5" value="Создание группы" style="ellipse;whiteSpace=wrap;html=1;" vertex="1" parent="1">
          <mxGeometry x="320.75" y="310" width="146" height="50" as="geometry" />
        </mxCell>
        <mxCell id="swak1WKB2JMvL7ucUvrD-6" value="Отправить фото в группу" style="ellipse;whiteSpace=wrap;html=1;" vertex="1" parent="1">
          <mxGeometry x="314" y="380" width="166" height="70" as="geometry" />
        </mxCell>
        <mxCell id="swak1WKB2JMvL7ucUvrD-7" value="" style="endArrow=classic;html=1;rounded=0;entryX=0;entryY=0.5;entryDx=0;entryDy=0;" edge="1" parent="1" target="swak1WKB2JMvL7ucUvrD-2">
          <mxGeometry width="50" height="50" relative="1" as="geometry">
            <mxPoint x="230" y="210" as="sourcePoint" />
            <mxPoint x="240" y="130" as="targetPoint" />
            <Array as="points">
              <mxPoint x="230" y="60" />
            </Array>
          </mxGeometry>
        </mxCell>
        <mxCell id="swak1WKB2JMvL7ucUvrD-8" value="" style="endArrow=none;html=1;rounded=0;" edge="1" parent="1">
          <mxGeometry width="50" height="50" relative="1" as="geometry">
            <mxPoint x="160" y="210" as="sourcePoint" />
            <mxPoint x="230" y="210" as="targetPoint" />
          </mxGeometry>
        </mxCell>
        <mxCell id="swak1WKB2JMvL7ucUvrD-12" value="" style="endArrow=classic;html=1;rounded=0;" edge="1" parent="1">
          <mxGeometry width="50" height="50" relative="1" as="geometry">
            <mxPoint x="230" y="210" as="sourcePoint" />
            <mxPoint x="300" y="150" as="targetPoint" />
            <Array as="points">
              <mxPoint x="280" y="210" />
              <mxPoint x="280" y="150" />
            </Array>
          </mxGeometry>
        </mxCell>
        <mxCell id="swak1WKB2JMvL7ucUvrD-13" value="" style="endArrow=classic;html=1;rounded=0;entryX=-0.003;entryY=0.6;entryDx=0;entryDy=0;entryPerimeter=0;" edge="1" parent="1" target="swak1WKB2JMvL7ucUvrD-4">
          <mxGeometry width="50" height="50" relative="1" as="geometry">
            <mxPoint x="230" y="210" as="sourcePoint" />
            <mxPoint x="310" y="210" as="targetPoint" />
            <Array as="points">
              <mxPoint x="230" y="252" />
            </Array>
          </mxGeometry>
        </mxCell>
        <mxCell id="swak1WKB2JMvL7ucUvrD-14" value="" style="endArrow=classic;html=1;rounded=0;entryX=0;entryY=0.5;entryDx=0;entryDy=0;" edge="1" parent="1" target="swak1WKB2JMvL7ucUvrD-5">
          <mxGeometry width="50" height="50" relative="1" as="geometry">
            <mxPoint x="230" y="250" as="sourcePoint" />
            <mxPoint x="320" y="300" as="targetPoint" />
            <Array as="points">
              <mxPoint x="230" y="335" />
            </Array>
          </mxGeometry>
        </mxCell>
        <mxCell id="swak1WKB2JMvL7ucUvrD-15" value="" style="endArrow=classic;html=1;rounded=0;entryX=0;entryY=0.5;entryDx=0;entryDy=0;" edge="1" parent="1" target="swak1WKB2JMvL7ucUvrD-6">
          <mxGeometry width="50" height="50" relative="1" as="geometry">
            <mxPoint x="230" y="330" as="sourcePoint" />
            <mxPoint x="310" y="390" as="targetPoint" />
            <Array as="points">
              <mxPoint x="230" y="415" />
            </Array>
          </mxGeometry>
        </mxCell>
      </root>
    </mxGraphModel>
  </diagram>
</mxfile>
